<?xml version="1.0" encoding="UTF-8"?>
<svg xmlns="http://www.w3.org/2000/svg" xmlns:xlink="http://www.w3.org/1999/xlink" viewBox="0 0 280.74 284.23">
  <defs>
    <style>
      .cls-1 {
        fill: url(#linear-gradient-2);
      }

      .cls-2 {
        fill: url(#radial-gradient-6);
      }

      .cls-2, .cls-3, .cls-4 {
        mix-blend-mode: overlay;
      }

      .cls-5 {
        fill: url(#linear-gradient-6);
      }

      .cls-6 {
        fill: url(#radial-gradient-5);
      }

      .cls-7 {
        isolation: isolate;
      }

      .cls-3 {
        fill: url(#radial-gradient-4);
      }

      .cls-4 {
        fill: url(#radial-gradient-2);
      }

      .cls-8 {
        fill: url(#radial-gradient);
      }

      .cls-9 {
        fill: #ffec00;
      }

      .cls-10 {
        fill: url(#linear-gradient-5);
      }

      .cls-11 {
        fill: url(#radial-gradient-3);
      }

      .cls-12 {
        fill: url(#linear-gradient-3);
      }

      .cls-13 {
        fill: url(#linear-gradient);
      }

      .cls-14 {
        fill: url(#linear-gradient-4);
      }
    </style>
    <radialGradient id="radial-gradient" cx="101.66" cy="122.7" fx="101.66" fy="122.7" r="55.43" gradientTransform="translate(211.33 21.04) rotate(90) scale(1 .89)" gradientUnits="userSpaceOnUse">
      <stop offset=".55" stop-color="#e85bb7"/>
      <stop offset=".79" stop-color="#ba37b7"/>
      <stop offset="1" stop-color="#8e15b8"/>
    </radialGradient>
    <radialGradient id="radial-gradient-2" cx="163.11" cy="95.73" fx="163.11" fy="95.73" r="110.25" gradientTransform="translate(-1.23) scale(1.02 1)" gradientUnits="userSpaceOnUse">
      <stop offset=".08" stop-color="#ffec00"/>
      <stop offset=".2" stop-color="#ffec00" stop-opacity=".97"/>
      <stop offset=".37" stop-color="#ffec00" stop-opacity=".89"/>
      <stop offset=".43" stop-color="#ffec00" stop-opacity=".85"/>
      <stop offset=".49" stop-color="#ffec00" stop-opacity=".83"/>
      <stop offset=".57" stop-color="#ffec00" stop-opacity=".76"/>
      <stop offset=".66" stop-color="#ffec00" stop-opacity=".66"/>
      <stop offset=".76" stop-color="#ffec00" stop-opacity=".51"/>
      <stop offset=".86" stop-color="#ffec00" stop-opacity=".31"/>
      <stop offset=".96" stop-color="#ffec00" stop-opacity=".08"/>
      <stop offset="1" stop-color="#ffec00" stop-opacity="0"/>
    </radialGradient>
    <radialGradient id="radial-gradient-3" cx="119.86" cy="114.91" fx="119.86" fy="114.91" r="76.02" gradientTransform="translate(-1.23) scale(1.02 1)" xlink:href="#radial-gradient"/>
    <radialGradient id="radial-gradient-4" cx="132.42" cy="114.97" fx="132.42" fy="114.97" r="45.88" xlink:href="#radial-gradient-2"/>
    <radialGradient id="radial-gradient-5" cx="140.24" cy="96" fx="140.24" fy="96" r="83.3" gradientTransform="translate(-1.23) scale(1.02 1)" xlink:href="#radial-gradient"/>
    <radialGradient id="radial-gradient-6" cx="163.35" cy="96.46" fx="163.35" fy="96.46" r="47.83" xlink:href="#radial-gradient-2"/>
    <linearGradient id="linear-gradient" x1="108.93" y1="206.78" x2="201.79" y2="49.5" gradientUnits="userSpaceOnUse">
      <stop offset="0" stop-color="#db8d38"/>
      <stop offset=".26" stop-color="#e7a93a"/>
      <stop offset=".58" stop-color="#f4c93d"/>
      <stop offset=".77" stop-color="#fad53e"/>
    </linearGradient>
    <linearGradient id="linear-gradient-2" x1="109.2" y1="222.52" x2="210.92" y2="50.23" xlink:href="#linear-gradient"/>
    <linearGradient id="linear-gradient-3" x1="180.46" y1="174.01" x2="180.46" y2="50.83" xlink:href="#linear-gradient"/>
    <linearGradient id="linear-gradient-4" x1="0" y1="133.46" x2="156.66" y2="133.46" xlink:href="#linear-gradient"/>
    <linearGradient id="linear-gradient-5" x1="124.1" y1="199.85" x2="280.74" y2="199.85" xlink:href="#linear-gradient"/>
    <linearGradient id="linear-gradient-6" x1="127.48" y1="232.42" x2="127.5" y2="232.42" xlink:href="#linear-gradient"/>
  </defs>
  <g class="cls-7">
    <g id="Layer_2" data-name="Layer 2">
      <g id="Layer_4" data-name="Layer 4">
        <g id="Layer_6" data-name="Layer 6">
          <g>
            <g>
              <path class="cls-8" d="M101.77,133.67v52.96c-11.35-5.22-21.27-15.22-25.22-31.68v-21.28h25.22Z"/>
              <path class="cls-4" d="M101.77,133.67v52.96c-11.35-5.22-21.27-15.22-25.22-31.68v-21.28h25.22Z"/>
              <path class="cls-11" d="M133.56,114.4v75.86c-1.33,.26-2.69,.48-4.09,.64-2.04,.24-4.13,.37-6.22,.37-4.83,0-9.93-.68-14.91-2.17V114.4h25.22Z"/>
              <path class="cls-3" d="M133.56,114.4v75.86c-1.33,.26-2.69,.48-4.09,.64-2.04,.24-4.13,.37-6.22,.37-4.83,0-9.93-.68-14.91-2.17V114.4h25.22Z"/>
              <path class="cls-6" d="M165.36,95.77v67.31c-3.48,11.77-12.59,21-25.22,25.38V95.77h25.22Z"/>
              <path class="cls-2" d="M165.36,95.77v67.31c-3.48,11.77-12.59,21-25.22,25.38V95.77h25.22Z"/>
            </g>
            <path class="cls-13" d="M209.47,72.31v74.12c0,1.38-.04,2.75-.13,4.12-.98,16.31-7.81,32.35-20.48,44.79-8.96,8.8-19.74,14.73-31.15,17.8-.51,.13-1.04,.26-1.56,.4-.51,.13-1.04,.25-1.56,.36-.32,.07-.63,.14-.95,.2-.33,.07-.67,.14-1.01,.2-.61,.12-1.23,.23-1.84,.34l-1.61,.25c-1.65,.24-3.3,.41-4.97,.53-.54,.04-1.07,.07-1.62,.08-1.95,.11-3.91,.12-5.86,.05-.67-.02-1.34-.05-2.01-.1-16.53-.99-32.77-7.69-45.41-20.11-12.51-12.28-19.32-28.01-20.46-44.08-.05-.68-.09-1.38-.11-2.06v-.06c.05-1.07,.12-2.13,.22-3.22,3.52,40.16,35.76,54.03,61.27,50.92,24.82-2.92,43.67-20.96,42.77-46.29,0-.2-.01-.41-.02-.62V72.31h36.51Z"/>
            <path class="cls-1" d="M222.91,87.62h-64.32c-2.66,0-4.21-2.96-2.65-5.09l32.16-43.93c1.3-1.78,4-1.78,5.31,0l32.17,43.93c1.56,2.12,.01,5.09-2.65,5.09Z"/>
            <path class="cls-12" d="M226.22,85.52h-16.75v60.91c0,1.38-.04,2.75-.13,4.12-.98,16.31-7.81,32.35-20.48,44.79-8.96,8.8-19.74,14.73-31.15,17.8-.51,.13-1.04,.26-1.56,.4-.51,.13-1.04,.25-1.56,.36-.32,.07-.63,.14-.95,.2-.33,.07-.67,.14-1.01,.2-.61,.12-1.23,.23-1.84,.34l-1.61,.25c-1.65,.24-3.3,.41-4.97,.53-.54,.04-1.07,.07-1.62,.08-1.95,.11-3.91,.12-5.86,.05-.67-.02-1.34-.05-2.01-.1,1.88-.11,3.77-.3,5.63-.56l1.61-.25c.61-.11,1.23-.22,1.84-.34,.34-.06,.68-.13,1.01-.2,.32-.06,.63-.13,.95-.2,.52-.11,1.05-.23,1.56-.36,.52-.13,1.05-.26,1.56-.4,11.41-3.07,22.19-8.99,31.15-17.8,12.67-12.44,19.51-28.48,20.48-44.79,.1-1.37,.13-2.74,.13-4.12l-.02-60.91-.5-35.65,26.11,35.65Z"/>
            <path class="cls-9" d="M172.96,149.93c.01,.22,.02,.42,.02,.62h-.02v-.62Z"/>
            <path class="cls-9" d="M209.47,146.43v4.12h-.13c.1-1.37,.13-2.74,.13-4.12Z"/>
          </g>
        </g>
        <g id="logo">
          <path class="cls-14" d="M156.66,21.4c-.05,9.64-.03,19.28-.03,28.92v2.15c-.51,3.39-3.45,5.99-6.98,5.99-.28,0-.55-.02-.82-.05-.65-.21-1.33-.39-2.03-.55-3.68-.91-7.9-1.42-12.39-1.42-2.87,0-5.63,.21-8.21,.59-.24,.04-.48,.08-.71,.11-6.69,1.02-13,3.48-19.24,6.18-9.82,4.26-18.43,10.3-25.88,17.93-10.05,10.3-17.25,22.28-21.33,36.18-6.39,21.77-4.19,42.66,5.62,62.96,4.1,8.49,9.54,16.04,16.29,22.57,8.12,7.86,17.14,14.5,27.83,18.53,1.69,.64,2.1,1.69,2.08,3.33-.06,6.62-.1,13.25-.01,19.87,.03,1.84-.76,2.81-2.2,3.74-5.45,3.54-10.82,7.2-16.22,10.81l-1.63,1.12c-1.29,.5-2.37,1.32-3.44,2.19-3.46,2.81-7.8,4.73-11.85,4.3-3.7-.39-7.4-3.02-9.51-6.85-1.48-2.68-1.64-5.51-1.53-8.48,.35-9.08,1.13-18.15,1-27.26-.06-4.05-2.08-6.27-6.16-6.21-8.74,.14-17.48,.27-26.19,1.16-9.2,.95-16.58-5.19-16.13-13.53,.21-3.85,2.38-6.84,4.41-9.89,4.02-6.02,8.07-12.03,12.03-18.09,3.76-5.74,2.72-9.6-3.46-12.75-7.35-3.75-14.74-7.43-22.14-11.08-4.69-2.3-7.5-5.75-7.8-11.16-.33-5.89,2.27-10.06,7.32-12.68,7.91-4.12,15.94-8.01,23.88-12.08,4.57-2.34,5.61-6.64,2.79-10.95-4.76-7.26-9.54-14.5-14.3-21.77-3.12-4.76-3.76-9.71-.65-14.68,3.06-4.88,7.65-6.38,13.29-6.01,8.16,.54,16.32,.93,24.48,1.57,5.58,.43,9.08-1.98,8.73-8.52-.47-8.81-.74-17.64-1.21-26.46-.27-5.04,2.3-9.86,6.72-12.3,4.29-2.36,8.87-2.3,13.07,.32,7.55,4.71,14.88,9.78,22.35,14.63,4.9,3.19,8.91,2.17,11.62-3.09,3.93-7.63,7.69-15.34,11.51-23.03,2.8-5.66,7.31-8.2,13.61-7.57,5.12,.52,8.06,3.65,10.64,7.86,2.62,4.29,2.8,8.74,2.78,13.45Z"/>
          <path class="cls-10" d="M277.98,150.32c-2.53,3.11-5.97,4.14-9.38,6.02-4.45,2.44-8.5,4.21-13.49,6.96-9.23,5.1-12.34,7.95-7.42,15.18,4.49,6.6,8.6,13.46,13.31,19.89,5.8,7.9,1.45,20.69-10.52,21.17-4.74,.19-9.31-.68-13.97-.87-5.04-.21-10.08-.26-15.13-.44-4.14-.14-6.18,2.3-6.69,6.58l1.48,29.18c.94,8.85-10.49,16.42-19.27,10.83-7.42-4.72-14.68-9.67-22.05-14.46-5.62-3.65-9.52-2.61-12.53,3.35-3.77,7.46-7.46,14.95-11.16,22.45-2.48,5.04-6.64,8.06-12.09,8.07-5.57,.01-9.72-3.13-12.08-8.36l-.03-.06c-1.84-4.09-2.8-8.52-2.81-13-.02-10.04-.04-20.07-.05-30.1v-.57c.13-3.74,3.21-6.72,6.99-6.72,.67,0,1.32,.09,1.94,.27,.06,.02,.11,.04,.17,.05,3.91,1.07,8.51,1.68,13.43,1.68,1.08,0,2.14-.03,3.18-.09,.11,0,.22,0,.33-.02,.41-.03,.79-.07,1.19-.1,.95-.11,1.99-.26,3.19-.42,1.83-.25,3.64-.6,5.43-1.02,.05,0,.11-.03,.17-.04,5.32-1.26,10.48-3.21,15.42-5.62,16.55-8.08,29.64-19.82,38.74-36.09,4.53-8.12,8.04-16.56,9.5-25.59,.35-2.2,.65-4.4,.87-6.61,.27-2.61,.44-5.24,.5-7.87,.03-1.27,.03-2.55-.01-3.83l14.64-22.12,.3-.46c.94-1.25,2.43-2.06,4.11-2.06,1.22,0,2.35,.43,3.23,1.15,.05,.04,.1,.08,.14,.12,.53,.44,1.15,.85,1.85,1.22,.86,.45,1.71,.9,2.57,1.35,5.85,3.08,11.73,6.14,17.72,8.92,4.61,2.13,8.9,4.69,10.87,9.39l.06,.23c.23,4.39,.44,8.68-2.65,12.46Z"/>
          <path class="cls-5" d="M127.5,232.14v.57c-.02-.1-.02-.19-.02-.29,0-.09,0-.19,.02-.28Z"/>
        </g>
      </g>
    </g>
  </g>
</svg>