<?xml version="1.0" encoding="UTF-8"?>
<svg id="Layer_2" data-name="Layer 2" xmlns="http://www.w3.org/2000/svg" viewBox="0 0 43.65 69.51">
  <defs>
    <style>
      .cls-1 {
        fill: #282929;
        stroke: gray;
        stroke-miterlimit: 10;
      }
    </style>
  </defs>
  <g id="generation_icon_active" data-name="generation icon active">
    <path class="cls-1" d="M20.36,43.35h-.88c-5.75,0-11.51-.04-17.26,.03-1.41,.02-2.17-1.21-1.43-2.49C8.31,27.78,15.79,14.65,23.28,1.52c.36-.63,.81-1.08,1.58-1.01,.76,.07,1.33,.72,1.26,1.54-.11,1.27-.29,2.53-.46,3.79-.47,3.59-.94,7.18-1.42,10.77-.39,2.95-.77,5.9-1.16,8.84-.03,.2-.04,.4-.07,.7,.3,0,.56,0,.81,0,5.87,0,11.73,.04,17.6-.03,1.32-.02,2.21,1.12,1.44,2.49-7.4,13.1-14.75,26.23-22.12,39.36-.48,.86-1.12,1.19-1.84,.96-.78-.25-1.09-.83-.99-1.88,.53-5.16,1.07-10.32,1.6-15.48,.28-2.71,.55-5.43,.83-8.23Z"/>
  </g>
</svg>