<?xml version="1.0" encoding="UTF-8"?>
<svg id="Layer_2" data-name="Layer 2" xmlns="http://www.w3.org/2000/svg" viewBox="0 0 16.56 16.34">
  <defs>
    <style>
      .cls-1 {
        fill: #606161;
      }
    </style>
  </defs>
  <g id="mini_zoom_icon_for_search_components_box" data-name="mini zoom icon for search components box">
    <path class="cls-1" d="M16.56,15.22c-.09,.19-.14,.4-.26,.56-.54,.71-1.44,.75-2.09,.1-1.18-1.18-2.36-2.36-3.54-3.55-.12-.12-.19-.13-.33-.04-1.36,.89-2.86,1.23-4.46,1.03-1.87-.23-3.38-1.12-4.52-2.62C.37,9.41-.08,7.94,.01,6.33,.11,4.52,.85,3,2.18,1.77,3.19,.83,4.38,.26,5.75,.07c1.29-.18,2.54,0,3.73,.55,1.33,.62,2.36,1.57,3.07,2.85,.46,.83,.73,1.73,.81,2.68,.11,1.42-.2,2.75-.93,3.97-.07,.11-.03,.17,.04,.24,1.14,1.14,2.28,2.28,3.42,3.41,.3,.3,.57,.6,.66,1.02v.42ZM11.21,6.7c.01-2.48-2-4.5-4.5-4.52-2.48-.02-4.53,1.99-4.53,4.5,0,2.52,2,4.51,4.49,4.53,2.5,.02,4.53-2.01,4.54-4.51Z"/>
  </g>
</svg>