<?xml version="1.0" encoding="UTF-8"?>
<svg id="Layer_2" data-name="Layer 2" xmlns="http://www.w3.org/2000/svg" viewBox="0 0 38.56 63.48">
  <defs>
    <style>
      .cls-1 {
        fill: #282929;
        stroke: gray;
        stroke-miterlimit: 10;
      }
    </style>
  </defs>
  <g id="storage_icon_active" data-name="storage icon active">
    <path class="cls-1" d="M11.56,6.72c0-.95,0-1.78,0-2.62,.03-2.05,1.54-3.58,3.58-3.59,2.87-.02,5.74-.02,8.62,0,2.09,.01,3.58,1.51,3.62,3.62,.01,.58,.03,1.16,0,1.73-.04,.53,.13,.7,.68,.69,2.08-.03,4.16,.06,6.24-.03,2.33-.1,3.78,1.88,3.78,3.8-.03,14.51-.02,29.01-.02,43.52,0,1.8,0,3.6,0,5.4-.01,2.25-1.5,3.74-3.76,3.74-10.01,0-20.02,0-30.03,0-2.26,0-3.76-1.49-3.76-3.74,0-16.24,0-32.48,0-48.73,0-2.28,1.48-3.77,3.79-3.79,2.16-.02,4.33,0,6.49,0,.23,0,.46,0,.78,0Zm7.73,18.9c3.38,0,6.77,0,10.15,0,1.21,0,1.81-.61,1.81-1.83,0-2.68,0-5.35,0-8.03,0-1.21-.59-1.83-1.82-1.83-6.77-.01-13.54-.01-20.31,0-1.26,0-1.84,.61-1.84,1.87,0,2.61,0,5.23,0,7.84,0,1.43,.55,1.98,1.98,1.98,3.34,0,6.68,0,10.02,0Zm0,18.07c-3.36,0-6.73,0-10.09,0-1.29,0-1.9,.6-1.91,1.87,0,2.66,0,5.31,0,7.97,0,1.26,.62,1.88,1.91,1.88,6.71,0,13.41,0,20.12,0,1.33,0,1.94-.61,1.94-1.92,0-2.63,0-5.27,0-7.9,0-1.31-.61-1.9-1.94-1.9-3.34,0-6.68,0-10.03,0Zm0-3.17c3.36,0,6.73,0,10.09,0,1.29,0,1.88-.6,1.89-1.89,0-2.63,0-5.27,0-7.9,0-1.32-.6-1.92-1.93-1.92-6.71,0-13.41,0-20.12,0-1.32,0-1.92,.61-1.92,1.93,0,2.61,0,5.23,0,7.84,0,1.37,.58,1.94,1.96,1.94,3.34,0,6.68,0,10.03,0Z"/>
  </g>
</svg>