<?xml version="1.0" encoding="UTF-8"?>
<svg id="Layer_2" data-name="Layer 2" xmlns="http://www.w3.org/2000/svg" viewBox="0 0 43.89 62.81">
  <defs>
    <style>
      .cls-1 {
        fill: #323232;
        stroke: gray;
        stroke-miterlimit: 10;
      }
    </style>
  </defs>
  <g id="wiring_icon_idle" data-name="wiring icon idle">
    <path class="cls-1" d="M43.27,33.13c-.49,9.18-6.95,17.04-16.09,19.4-.16,.04-.32,.08-.49,.12-.26,.07-.45,.31-.45,.58,0,2.56-.03,5.12,0,7.68,0,.77-.61,1.41-1.39,1.41h-5.6c-.88,0-1.6-.71-1.61-1.59,0-.61-.01-1.22-.03-1.83-.04-1.86-.01-3.73-.01-5.63,0-.29-.19-.54-.47-.61-.54-.14-1.06-.27-1.56-.45C7.04,49.21,2.03,43.29,.65,34.33c-.02-.09-.05-.18-.09-.27-.04-.11-.07-.23-.07-.35v-13.46c0-.1,.02-.2,.07-.28,.74-1.46,1.96-1.97,3.61-1.86,1.25,.09,2.5,.04,3.81,.02,.35,0,.63-.29,.63-.63v-.34c0-4.08,.07-8.16-.02-12.24-.06-2.46,1.68-4.35,3.97-4.41,2.29-.07,4.1,1.85,4.11,4.39,.03,4.05,0,8.11,0,12.16v.08c0,.51,.42,.93,.93,.93h8.68c.51,0,.93-.42,.93-.93v-.03c0-4.11,0-8.22,0-12.33,0-2.08,1.11-3.62,2.88-4.12,2.5-.71,5.06,1.08,5.1,3.73,.08,4.21,.03,8.43,.04,12.65v.16c0,.51,.41,.93,.91,.93,0,0,0,0,0,0,1.51,0,3.03-.02,4.54,.02,1.49,.05,2.6,1.18,2.61,2.66,.02,4.11,.17,8.23-.05,12.32Z"/>
  </g>
</svg>