<?xml version="1.0" encoding="UTF-8"?>
<svg id="Layer_2" data-name="Layer 2" xmlns="http://www.w3.org/2000/svg" viewBox="0 0 88.2 56.88">
  <defs>
    <style>
      .cls-1 {
        fill: gray;
      }

      .cls-2 {
        fill: #282929;
        stroke: gray;
        stroke-miterlimit: 10;
      }
    </style>
  </defs>
  <g id="_button_active" data-name="= button active">
    <g id="_active" data-name="= active">
      <rect class="cls-2" x=".5" y=".5" width="87.2" height="55.88"/>
      <path class="cls-1" d="M38.77,14.27v7.04c0,.32-.26,.58-.58,.58h-11.27c-.32,0-.58,.26-.58,.58v22.12c0,.32,.26,.58,.58,.58h23.81c.32,0,.58-.26,.58-.58v-5.38c0-.32,.26-.58,.58-.58h11.42c.32,0,.58-.26,.58-.58V14.27c0-.32-.26-.58-.58-.58h-23.96c-.32,0-.58,.26-.58,.58Zm5.73,24.36h-11.36c-.32,0-.58-.26-.58-.58v-9.28c0-.32,.26-.58,.58-.58h11.36c.32,0,.58,.26,.58,.58v9.28c0,.32-.26,.58-.58,.58Zm12.5-6.27h-5.11c-.32,0-.58-.26-.58-.58v-9.33c0-.32-.26-.58-.58-.58h-5.09c-.32,0-.58-.26-.58-.58v-.76c0-.32,.26-.58,.58-.58h11.35c.32,0,.58,.26,.58,.58v11.24c0,.32-.26,.58-.58,.58Z"/>
    </g>
  </g>
</svg>