<?xml version="1.0" encoding="UTF-8"?>
<svg id="Layer_2" data-name="Layer 2" xmlns="http://www.w3.org/2000/svg" viewBox="0 0 87.71 56.56">
  <defs>
    <style>
      .cls-1 {
        fill: gray;
      }

      .cls-2 {
        fill: #323232;
        stroke: gray;
        stroke-miterlimit: 10;
      }
    </style>
  </defs>
  <g id="_button_idle" data-name="= button idle">
    <g id="_light" data-name="= light">
      <rect class="cls-2" x=".5" y=".5" width="86.71" height="55.56"/>
      <path class="cls-1" d="M38.55,14.19v7c0,.32-.26,.57-.57,.57h-11.2c-.32,0-.57,.26-.57,.57v22c0,.32,.26,.57,.57,.57h23.68c.32,0,.57-.26,.57-.57v-5.35c0-.32,.26-.57,.57-.57h11.35c.32,0,.57-.26,.57-.57V14.19c0-.32-.26-.57-.57-.57h-23.82c-.32,0-.57,.26-.57,.57Zm5.69,24.23h-11.3c-.32,0-.57-.26-.57-.57v-9.22c0-.32,.26-.57,.57-.57h11.3c.32,0,.57,.26,.57,.57v9.22c0,.32-.26,.57-.57,.57Zm12.43-6.24h-5.08c-.32,0-.57-.26-.57-.57v-9.28c0-.32-.26-.57-.57-.57h-5.06c-.32,0-.57-.26-.57-.57v-.75c0-.32,.26-.57,.57-.57h11.29c.32,0,.57,.26,.57,.57v11.18c0,.32-.26,.57-.57,.57Z"/>
    </g>
  </g>
</svg>