<?xml version="1.0" encoding="UTF-8"?>
<svg id="Layer_2" data-name="Layer 2" xmlns="http://www.w3.org/2000/svg" viewBox="0 0 129.11 161.26">
  <defs>
    <style>
      .cls-1 {
        fill: #282929;
        stroke: gray;
        stroke-miterlimit: 10;
      }
    </style>
  </defs>
  <g id="Delete_active" data-name="Delete active">
    <g>
      <path class="cls-1" d="M64.63,48.59c15.51,0,31.03,.16,46.54-.08,6.09-.09,9.94,3.96,9.38,9.82-1.23,12.82-2.19,25.67-3.26,38.51-.93,11.16-2.02,22.3-2.75,33.47-1.1,16.86-14.48,30.04-31.37,30.3-12.45,.19-24.9,.2-37.35,0-16.76-.27-30.1-13.5-31.24-30.24-.98-14.35-2.36-28.67-3.56-43.01-.82-9.85-1.69-19.69-2.4-29.55-.42-5.81,2.88-9.21,8.71-9.22,15.77-.01,31.53,0,47.3,0Z"/>
      <path class="cls-1" d="M64.57,32.54c-18.52,0-37.03,.01-55.55,0-5.71,0-9.51-4.58-8.29-9.9,.86-3.71,4.09-6.12,8.37-6.14,7.63-.03,15.26,0,22.9,0,4.73,0,6.26-1.37,6.77-6.05,.64-5.88,4.87-9.85,10.77-9.89,10.01-.06,20.02-.06,30.03,0,5.98,.04,10.21,4.06,10.8,10.06,.43,4.35,2.12,5.87,6.56,5.88,7.69,0,15.39-.02,23.08,.01,4.37,.02,7.6,2.48,8.41,6.31,1.08,5.11-2.59,9.68-7.93,9.72-6.69,.05-13.39,.01-20.08,.01-11.95,0-23.9,0-35.84,0Z"/>
    </g>
  </g>
</svg>