<?xml version="1.0" encoding="UTF-8"?>
<svg id="Layer_2" data-name="Layer 2" xmlns="http://www.w3.org/2000/svg" viewBox="0 0 48.69 48.69">
  <defs>
    <style>
      .cls-1 {
        fill: #323232;
        stroke: gray;
        stroke-miterlimit: 10;
      }
    </style>
  </defs>
  <g id="grid_icon_idle" data-name="grid icon idle">
    <path class="cls-1" d="M1.82,.5H46.87c.73,0,1.32,.59,1.32,1.32V46.87c0,.73-.59,1.32-1.32,1.32H1.82c-.73,0-1.32-.59-1.32-1.32V1.82C.5,1.09,1.09,.5,1.82,.5ZM15.42,14.11V4.65c0-.73-.59-1.32-1.32-1.32H4.63c-.73,0-1.32,.59-1.32,1.32V14.11c0,.73,.59,1.32,1.32,1.32H14.1c.73,0,1.32-.59,1.32-1.32Zm19.15,1.31h9.47c.73,0,1.32-.59,1.32-1.32V4.63c0-.73-.59-1.32-1.32-1.32h-9.47c-.73,0-1.32,.59-1.32,1.32V14.1c0,.73,.59,1.32,1.32,1.32ZM4.64,45.37H14.1c.73,0,1.32-.59,1.32-1.32v-9.48c0-.73-.59-1.32-1.32-1.32H4.64c-.73,0-1.32,.59-1.32,1.32v9.48c0,.73,.59,1.32,1.32,1.32Zm40.73-1.31v-9.47c0-.73-.59-1.32-1.32-1.32h-9.47c-.73,0-1.32,.59-1.32,1.32v9.47c0,.73,.59,1.32,1.32,1.32h9.47c.73,0,1.32-.59,1.32-1.32ZM29.07,3.33h-9.45c-.73,0-1.32,.59-1.32,1.32V14.11c0,.73,.59,1.32,1.32,1.32h9.45c.73,0,1.32-.59,1.32-1.32V4.65c0-.73-.59-1.32-1.32-1.32ZM4.63,30.39H14.1c.73,0,1.32-.59,1.32-1.32v-9.44c0-.73-.59-1.32-1.32-1.32H4.63c-.73,0-1.32,.59-1.32,1.32v9.44c0,.73,.59,1.32,1.32,1.32Zm28.64-10.78v9.45c0,.73,.59,1.32,1.32,1.32h9.47c.73,0,1.32-.59,1.32-1.32v-9.45c0-.73-.59-1.32-1.32-1.32h-9.47c-.73,0-1.32,.59-1.32,1.32Zm-14.95,14.96v9.48c0,.73,.59,1.32,1.32,1.32h9.43c.73,0,1.32-.59,1.32-1.32v-9.48c0-.73-.59-1.32-1.32-1.32h-9.43c-.73,0-1.32,.59-1.32,1.32Zm0-14.95v9.45c0,.73,.59,1.32,1.32,1.32h9.43c.73,0,1.32-.59,1.32-1.32v-9.45c0-.73-.59-1.32-1.32-1.32h-9.43c-.73,0-1.32,.59-1.32,1.32Z"/>
  </g>
</svg>