<?xml version="1.0" encoding="UTF-8"?>
<svg id="Layer_2" data-name="Layer 2" xmlns="http://www.w3.org/2000/svg" viewBox="0 0 399.59 97.59">
  <defs>
    <style>
      .cls-1 {
        fill: #2a2c6b;
      }

      .cls-2 {
        fill: #f8af1b;
      }
    </style>
  </defs>
  <g id="logo">
    <g>
      <path class="cls-2" d="M358.75,92.58c-.27,.1-.5,.28-.73,.46-.73,.6-1.66,1-2.51,.91-.79-.08-1.57-.64-2.02-1.45-.31-.57-.35-1.17-.32-1.8,.07-1.93,.24-3.85,.21-5.78-.01-.86-.44-1.33-1.3-1.32-1.85,.03-3.71,.06-5.56,.25-1.95,.2-3.52-1.1-3.42-2.87,.04-.82,.5-1.45,.94-2.1,.85-1.28,1.71-2.55,2.55-3.84,.8-1.22,.58-2.04-.73-2.7-1.56-.79-3.13-1.58-4.7-2.35-.99-.49-1.59-1.22-1.65-2.37-.07-1.25,.48-2.13,1.55-2.69,1.68-.87,3.38-1.7,5.07-2.56,.97-.5,1.19-1.41,.59-2.32-1.01-1.54-2.02-3.08-3.03-4.62-.66-1.01-.8-2.06-.14-3.11,.65-1.04,1.62-1.35,2.82-1.28,1.73,.11,3.46,.2,5.19,.33,1.18,.09,1.93-.42,1.85-1.81-.1-1.86-.16-3.73-.26-5.59-.06-1.05,.46-2.08,1.38-2.6s1.91-.53,2.82,.04c1.6,1,3.16,2.07,4.74,3.1,1.04,.68,1.89,.46,2.47-.65,.83-1.62,1.63-3.25,2.44-4.88,.6-1.2,1.55-1.74,2.89-1.61,1.09,.11,1.71,.77,2.26,1.67,.56,.91,.6,1.85,.59,2.85-.02,3.41,0,6.82-.01,10.22,0,.48,.12,.67,.62,.81,4.76,1.34,8.14,4.28,10.09,8.84,.62,1.45,.96,2.98,1.07,4.56-.01,.84-.02,1.69-.03,2.53-.49,4.22-2.36,7.66-5.68,10.32-1.35,1.07-2.88,1.79-4.43,2.5-.12,.05-.26,.03-.35-.06-.12-.12-.16-.2-.06-.34,.91-1.2,1.41-2.61,2.09-3.93,1.55-3.01,3.03-6.05,4.54-9.08,.13-.27,.29-.54,.26-.86-.15-.44-.28-.9-.76-1.11-.34-.24-.74-.15-1.11-.16-2.55,0-5.09,0-7.64,0-1.49,0-2.32-.81-2.34-2.3-.02-2.95-.03-5.9-.04-8.85,0-.73,.06-1.46,.02-2.19-.04-.69,.17-1.4-.13-2.08-.14-1-.53-1.37-1.56-1.34-1.85,.05-3.55,.69-5.23,1.42-2.08,.9-3.91,2.18-5.49,3.8-2.13,2.18-3.66,4.72-4.52,7.67-1.36,4.62-.89,9.05,1.19,13.35,.87,1.8,2.02,3.4,3.46,4.79,1.72,1.67,3.64,3.08,5.9,3.93,.36,.13,.44,.36,.44,.71-.01,1.4-.02,2.81,0,4.22,0,.39-.16,.59-.47,.79-1.16,.75-2.3,1.53-3.44,2.29"/>
      <path class="cls-2" d="M376.09,45.13c.88-.58,1.76-1.16,2.64-1.74,.84-.56,1.67-1.14,2.5-1.71,0,0,.02,0,.02,0,1.59-1.13,3.12-.68,3.96,.17,.43,.44,.66,.95,.67,1.59,.01,2.07-.12,4.13-.28,6.19-.08,1.05,.69,1.82,1.73,1.77,1.82-.09,3.63-.25,5.44-.38,1.09-.08,2.05,.18,2.68,1.14,.65,.99,.74,2.05,.1,3.07-1.03,1.63-2.12,3.23-3.17,4.85-.59,.91-.38,1.76,.57,2.26,1.42,.75,2.85,1.5,4.3,2.18,.98,.45,1.81,1.01,2.3,1.99,0,0,.01,.05,.01,.05,.05,.93,.09,1.84-.56,2.64-.54,.66-1.34,.84-1.99,1.28-.91,.61-1.88,1.13-2.92,1.5-2.06,.72-2.55,1.68-1.51,3.2,.95,1.4,1.82,2.85,2.82,4.22,1.23,1.68,.31,4.39-2.23,4.49-1.01,.04-1.97-.14-2.96-.18-1.07-.04-2.14-.05-3.21-.09-.88-.03-1.31,.49-1.42,1.4-.08,.64,.07,1.27,.14,1.91,.16,1.42,.02,2.87,.17,4.28,.2,1.88-2.22,3.48-4.09,2.3-1.57-1-3.11-2.05-4.68-3.07-1.19-.77-2.02-.55-2.66,.71-.8,1.58-1.58,3.17-2.37,4.76-.53,1.07-1.41,1.71-2.56,1.71-1.18,0-2.06-.66-2.56-1.77-.18-.41-.4-.8-.6-1.2,0-3.91-.01-7.82-.02-11.73,.14-.55-.02-.83-.63-.99-4.24-1.15-7.39-3.69-9.45-7.57-.92-1.74-1.45-3.59-1.61-5.56-.4-4.96,1.31-9.08,4.91-12.45,1.48-1.39,3.23-2.36,5.16-3.02,.15-.05,.33-.16,.46,0,.1,.14-.05,.26-.12,.38-1.04,1.77-1.86,3.65-2.78,5.48-.25,.56-.19,.52-.53,1.26-.03,.06-.06,.12-.1,.18-1.28,2-2.19,4.19-3.24,6.3-.47,.95,.18,1.81,1.31,1.82,2.6,.02,5.19,.07,7.79-.01,1.61-.05,2.69,.89,2.66,2.64-.07,3.95-.02,7.91-.02,11.86,0,.43,0,.86,.19,1.26,.62,1.26,1.1,1.14,2.46,.95,1.55-.22,3.05-.73,4.46-1.42,3.51-1.72,6.29-4.2,8.22-7.66,.96-1.72,1.71-3.51,2.01-5.43,.32-1.96,.41-3.94,.13-5.97-.34-2.48-1.09-4.75-2.35-6.86-2.01-3.37-4.85-5.86-8.43-7.47-.13-.06-.28-.06-.41-.09-.07-.12-.19-.13-.31-.15,0,0,.03,0,.03,0-.03-.12-.05-.25-.08-.37,0-.1,0-.2,0-.3,0-1.52,0-3.04,.01-4.57Z"/>
      <path class="cls-1" d="M7.17,1.01c-.66,.34-1.32,.68-1.99,1.02l-.04-.04c.67-.33,1.34-.66,2.01-.99h.01Z"/>
      <path class="cls-1" d="M1.16,5.98c.21-.19,.41-.39,.62-.58,.08,.14,.17,.28,.25,.42-.28,.06-.56,.12-.84,.19,0,0-.04-.03-.04-.03Z"/>
      <path class="cls-1" d="M1.19,6.02c-.34,.66-.67,1.33-1.01,1.99,0,0-.03-.03-.03-.03,.33-.66,.67-1.33,1-1.99,0,0,.04,.03,.04,.03Z"/>
      <path class="cls-1" d="M7.16,1c.34-.33,.67-.66,1.01-.99,0,0,0,0,0,0-.33,.34-.66,.67-.99,1.01,0,0-.01-.01-.01-.01Z"/>
      <polygon class="cls-1" points="5.18 2.02 4.9 2.29 5.15 1.99 5.18 2.02"/>
      <path class="cls-1" d="M.19,8.01c-.06,.09-.13,.18-.19,.27,.05-.1,.1-.2,.15-.31,0,0,.03,.03,.03,.03Z"/>
    </g>
  </g>
</svg>