<?xml version="1.0" encoding="UTF-8"?>
<svg id="Layer_2" data-name="Layer 2" xmlns="http://www.w3.org/2000/svg" viewBox="0 0 48.69 48.69">
  <defs>
    <style>
      .cls-1 {
        fill: #282929;
        stroke: gray;
        stroke-miterlimit: 10;
      }
    </style>
  </defs>
  <g id="text_icon_active" data-name="text icon active">
    <g>
      <path class="cls-1" d="M10.1,.5c.46,.22,.86,.49,1,1.02,.24,.91-.41,1.76-1.38,1.77-1.95,0-3.91,0-5.86,0-.17,0-.33,0-.56,0,0,.2,0,.37,0,.53,0,1.92,0,3.85,0,5.77,0,.92-.55,1.53-1.38,1.54-.85,0-1.41-.61-1.41-1.55,0-2.44,.02-4.87-.01-7.31-.01-.85,.26-1.43,1.04-1.78H10.1Z"/>
      <path class="cls-1" d="M48.19,10.09c-.22,.46-.49,.86-1.02,1-.91,.24-1.77-.41-1.77-1.37,0-1.95,0-3.91,0-5.86,0-.17,0-.34,0-.57-.19,0-.36,0-.52,0-1.86,0-3.72,0-5.58,0-.97,0-1.53-.34-1.71-1.03-.19-.73,.14-1.3,1.01-1.76h8.57c.47,.21,.81,.55,1.02,1.02V10.09Z"/>
      <path class="cls-1" d="M48.19,47.15c-.35,.8-.97,1.05-1.83,1.04-2.42-.04-4.84-.01-7.26-.01-.94,0-1.56-.57-1.55-1.41,0-.82,.62-1.37,1.54-1.38,2.08,0,4.16,0,6.3,0,0-.18,0-.35,0-.51,0-1.92,0-3.85,0-5.77,0-.82,.4-1.39,1.08-1.53,.72-.15,1.29,.17,1.65,.94,.01,.03,.04,.05,.06,.07v8.57Z"/>
      <path class="cls-1" d="M24.37,8.7c4.7,0,9.4,0,14.1,0,.88,0,1.13,.25,1.13,1.14,0,2.73,0,5.46,0,8.19,0,.83-.26,1.09-1.08,1.09-1.24,0-2.48,0-3.72,0-.75,0-1.03-.28-1.03-1.05,0-.88,0-1.77,0-2.65,0-.61-.26-.89-.87-.89-1.58-.01-3.17-.01-4.75,0-.62,0-.89,.3-.9,.93,0,.54,0,1.09,0,1.63,0,6.53,0,13.07,0,19.6,0,.99,.21,1.2,1.2,1.2,.53,0,1.06,0,1.58,0,.68,.01,.98,.29,.99,.96,.01,1.3,.01,2.61,0,3.91,0,.67-.31,.95-.99,.95-3.79,0-7.57,0-11.36,0-.69,0-.99-.29-.99-1,0-1.27,0-2.54,0-3.82,0-.72,.3-1,1.03-1.01,.56,0,1.12,0,1.68,0,.8,0,1.06-.26,1.06-1.06,0-2.28,0-4.56,0-6.84,0-4.76,0-9.53,0-14.29,0-.95-.22-1.17-1.18-1.17-1.4,0-2.79,0-4.19,0-.98,0-1.15,.18-1.15,1.18,0,.81,0,1.61,0,2.42,0,.7-.3,1-.98,1-1.29,0-2.58,0-3.86,0-.69,0-.98-.3-.98-1,0-2.81,0-5.62,0-8.43,0-.71,.3-1,1.04-1,4.75,0,9.5,0,14.24,0Z"/>
      <path class="cls-1" d="M3.3,45.39c.21,0,.38,0,.55,0,1.92,0,3.85,0,5.77,0,.91,0,1.52,.56,1.52,1.39,0,.83-.61,1.4-1.52,1.4-2.53,0-5.06,0-7.59,0-.97,0-1.53-.56-1.53-1.53,0-2.53,0-5.06,0-7.59,0-.91,.57-1.52,1.4-1.51,.83,0,1.39,.61,1.39,1.52,0,1.92,0,3.85,0,5.77,0,.17,0,.33,0,.54Z"/>
    </g>
  </g>
</svg>