<?xml version="1.0" encoding="UTF-8"?>
<svg id="Layer_2" data-name="Layer 2" xmlns="http://www.w3.org/2000/svg" viewBox="0 0 87.71 56.56">
  <defs>
    <style>
      .cls-1 {
        fill: gray;
      }

      .cls-2 {
        fill: #323232;
        stroke: gray;
        stroke-miterlimit: 10;
      }
    </style>
  </defs>
  <g id="x_button_idle" data-name="x button idle">
    <g id="x_light" data-name="x light">
      <path class="cls-2" d="M12.86,.5H87.21V56.06H.5V12.86C.5,6.04,6.04,.5,12.86,.5Z" transform="translate(87.71 56.56) rotate(-180)"/>
      <path class="cls-1" d="M29.08,16.44l7.57-.02c.14,0,.28,.06,.37,.17l6.7,7.71c.2,.23,.54,.23,.74,0l6.76-7.69c.09-.11,.23-.17,.37-.17h7.58c.27,0,.49,.21,.49,.48v1.37c0,.13-.05,.25-.14,.35l-9.87,10.01c-.19,.19-.19,.5,0,.7l9.86,9.75c.09,.09,.15,.22,.15,.35v1.37c0,.27-.22,.49-.49,.49h-7.56c-.14,0-.28-.06-.37-.17l-6.74-7.69c-.2-.22-.54-.22-.74,0l-6.75,7.69c-.09,.11-.23,.17-.37,.17h-7.55c-.27,0-.49-.22-.49-.49v-1.39c0-.13,.05-.26,.14-.35l9.84-9.87c.19-.19,.19-.5,0-.7l-9.85-9.88c-.09-.09-.14-.22-.14-.35v-1.36c0-.27,.22-.49,.49-.49Z"/>
    </g>
  </g>
</svg>