<?xml version="1.0" encoding="UTF-8"?>
<svg id="Layer_2" data-name="Layer 2" xmlns="http://www.w3.org/2000/svg" viewBox="0 0 88.2 56.88">
  <defs>
    <style>
      .cls-1 {
        fill: gray;
      }

      .cls-2 {
        fill: #282929;
        stroke: gray;
        stroke-miterlimit: 10;
      }
    </style>
  </defs>
  <g id="x_button_active" data-name="x button active">
    <g id="x_active" data-name="x active">
      <path class="cls-2" d="M12.77,.5H87.7V56.38H.5V12.77C.5,6,6,.5,12.77,.5Z" transform="translate(88.2 56.88) rotate(-180)"/>
      <path class="cls-1" d="M29.24,18.05l7.62-.02c.14,0,.28,.06,.38,.17l6.73,7.75c.2,.23,.55,.23,.75,0l6.8-7.73c.09-.11,.23-.17,.37-.17h7.62c.27,0,.5,.21,.5,.49v1.38c0,.13-.05,.26-.14,.35l-9.93,10.06c-.19,.19-.19,.51,0,.7l9.91,9.8c.09,.09,.15,.22,.15,.35v1.38c0,.27-.22,.5-.49,.5h-7.61c-.14,0-.28-.06-.37-.17l-6.78-7.73c-.2-.22-.55-.23-.74,0l-6.79,7.73c-.09,.11-.23,.17-.37,.17h-7.6c-.27,0-.5-.22-.5-.5v-1.4c0-.13,.05-.26,.14-.35l9.9-9.92c.19-.19,.19-.51,0-.7l-9.9-9.93c-.09-.09-.14-.22-.14-.35v-1.37c0-.27,.22-.49,.49-.5Z"/>
    </g>
  </g>
</svg>