<?xml version="1.0" encoding="UTF-8"?>
<svg id="Layer_2" data-name="Layer 2" xmlns="http://www.w3.org/2000/svg" viewBox="0 0 47.77 47.15">
  <defs>
    <style>
      .cls-1 {
        fill: #282929;
        stroke: gray;
        stroke-miterlimit: 10;
      }
    </style>
  </defs>
  <g id="zoom_icon_active" data-name="zoom icon active">
    <path class="cls-1" d="M47.27,43.49c-.24,.53-.4,1.13-.75,1.59-1.51,2-4.07,2.11-5.9,.28-3.34-3.33-6.68-6.66-10-10.01-.33-.33-.53-.36-.93-.1-3.84,2.51-8.07,3.49-12.6,2.92-5.28-.66-9.55-3.17-12.77-7.41C1.53,27.09,.27,22.94,.53,18.37c.29-5.1,2.36-9.41,6.12-12.88C9.51,2.85,12.88,1.24,16.74,.7c3.65-.51,7.18-.02,10.54,1.54,3.76,1.75,6.65,4.44,8.67,8.06,1.31,2.35,2.07,4.88,2.28,7.57,.31,4.02-.56,7.76-2.61,11.22-.19,.32-.09,.47,.13,.69,3.22,3.21,6.43,6.44,9.66,9.64,.84,.83,1.62,1.69,1.86,2.89v1.19Zm-15.1-24.07c.03-7-5.66-12.7-12.72-12.76-7.01-.06-12.79,5.63-12.8,12.72,0,7.11,5.65,12.73,12.69,12.79,7.05,.06,12.8-5.67,12.83-12.75Z"/>
  </g>
</svg>